[center][img]http://img19.imageshack.us/img19/1517/seasonofthewitchposter6.jpg[/img]



[img]http://leetleech.org/images/48874973695367351744.png[/img]


rmat                           : AVI
Format/Info                      : Audio Video Interleave
File size                        : 1.10 GiB
Duration                         : 1h 33mn
Overall bit rate                 : 1 679 Kbps
Writing library                  : VirtualDub build 32839/release

Video
ID                               : 0
Format                           : MPEG-4 Visual
Format profile                   : Advanced Simple@L5
Format settings, BVOP            : Yes
Format settings, QPel            : No
Format settings, GMC             : No warppoints
Format settings, Matrix          : Custom
Codec ID                         : XVID
Codec ID/Hint                    : XviD
Duration                         : 1h 33mn
Bit rate                         : 1 538 Kbps
Width                            : 720 pixels
Height                           : 400 pixels
Display aspect ratio             : 16:9
Frame rate                       : 29.970 fps
Color space                      : YUV
Chroma subsampling               : 4:2:0
Bit depth                        : 8 bits
Scan type                        : Progressive
Bits/(Pixel*Frame)               : 0.178
Stream size                      : 1.01 GiB (92%)
Writing library                  : XviD 1.2.1 (UTC 2008-12-04)

Audio
ID                               : 1
Format                           : MPEG Audio
Format version                   : Version 1
Format profile                   : Layer 3
Mode                             : Joint stereo
Mode extension                   : MS Stereo
Codec ID                         : 55
Codec ID/Hint                    : MP3
Duration                         : 1h 33mn
Bit rate mode                    : Constant
Bit rate                         : 128 Kbps
Channel(s)                       : 2 channels
Sampling rate                    : 44.1 KHz
Stream size                      : 85.9 MiB (8%)
Alignment                        : Aligned on interleaves
Interleave, duration             : 26 ms (0.78 video frame)
Interleave, preload duration     : 522 ms
Writing library                  : LAME3.98.2




[url]http://www.imdb.com/title/tt0479997/[/url]




[IMG]http://leetleech.org/images/89524873606771859129.png[/IMG]



Storyline

A 14th century Crusader returns to a homeland devastated by the Black Plague. A beleaguered church, deeming sorcery the culprit of the plague, commands the two knights to transport an accused witch to a remote abbey, where monks will perform a ritual in hopes of ending the pestilence. A priest, a grieving knight, a disgraced itinerant and a headstrong youth who can only dream of becoming a knight join a mission troubled by mythically hostile wilderness and fierce contention over the fate of the girl. When the embattled party arrives at the abbey, a horrific discovery jeopardises the knight's pledge to ensure the girl fair treatment, and pits them against an inexplicably powerful and destructive force.


[img]http://leetleech.org/images/95521316153253938506.png[/img]




[img]http://img59.imageshack.us/img59/2213/vlcsnap2011030604h38m35.png[/img]

[img]http://img16.imageshack.us/img16/4690/vlcsnap2011030604h39m04.png[/img]

[img]http://img222.imageshack.us/img222/7471/vlcsnap2011030604h42m45.png[/img]


Source used

IFLIX PPV .................Thanks

Few filters video was interlaced so sorted that out denoise filter as well....toned down the red abit,brightness/contrast........

Retail be pretty soon but had a go anyway

Enjoy !



Greetz to Imagine ,Flawl3ss ,Santi ,Vision ,Kingdom, BDK, TOXiCiNK, THC, Ez, Rx,

[img]http://img411.imageshack.us/img411/6898/sig1n.jpg[/img]




